{"title":"Patinoire, la - Jean-Philippe Toussaint, 1998","uid":6383541,"size":735350784,"categoryP":"video","categoryS":"movies","magnet":"?xt=urn:btih:93af75ded08f2b5dc040f2249b85dcf490b5b1d9&amp;dn=Patinoire%2C+la+-+Jean-Philippe+Toussaint%2C+1998&amp;tr=udp%3A%2F%2Ftracker.openbittorrent.com%3A80&amp;tr=udp%3A%2F%2Fopen.demonii.com%3A1337&amp;tr=udp%3A%2F%2Ftracker.coppersurfer.tk%3A6969&amp;tr=udp%3A%2F%2Fexodus.desync.com%3A6969","seeders":1,"leechers":0,"uploader":"abenteuerer","files":1,"time":1305073706,"description":" &lt;a href=&quot;http://www.imdb.com/title/tt0120785/&quot; rel=&quot;nofollow&quot; target=&quot;_NEW&quot;&gt;http://www.imdb.com/title/tt0120785/&lt;/a&gt;\n\nA film director tries to cope with his frantic producer, too-amorous actors, and a disaster-prone crew as he rushes to get his deeply symbolic hockey movie &quot;Dolores&quot; done in time for the Venice Film Festival.\n\nDirector: Jean-Philippe Toussaint\nStars: Tom Novembre, Mireille Perrier, Dolores Chaplin, Bruce Campbell\n\n\n   General\n      Format : AVI\n      Format/Info : Audio Video Interleave\n      File size : 701 MiB\n      Duration : 1h 18mn\n      Overall bit rate : 1 246 Kbps\n      Writing application : Nandub v1.0rc2\n      Writing library : Nandub build 1852/release\n   Video #0\n      ID : 0\n      Format : MPEG-4 Visual\n      Format profile : AdvancedSimple@L5\n      Format settings, BVOP : Yes\n      Format settings, QPel : No\n      Format settings, GMC : No warppoints\n      Format settings, Matrix : Custom\n      Muxing mode : Packed bitstream\n      Codec ID : XVID\n      Codec ID/Hint : XviD\n      Duration : 1h 18mn\n      Bit rate : 1 122 Kbps\n      Width : 512 pixels\n      Height : 272 pixels\n      Display aspect ratio : 1.882\n      Frame rate : 29.970 fps\n      Resolution : 24 bits\n      Colorimetry : 4:2:0\n      Scan type : Progressive\n      Bits/(Pixel*Frame) : 0.269\n      Stream size : 631 MiB (90%)\n      Writing library : XviD 1.0.3 (UTC 2004-12-20)\n   Audio #1\n      ID : 1\n      Format : MPEG Audio\n      Format version : Version 1\n      Format profile : Layer 3\n      Codec ID : 55\n      Codec ID/Hint : MP3\n      Duration : 1h 18mn\n      Bit rate mode : Variable\n      Bit rate : 111 Kbps\n      Nominal bit rate : 112 Kbps\n      Channel(s) : 2 channels\n      Sampling rate : 44.1 KHz\n      Resolution : 16 bits\n      Stream size : 62.3 MiB (9%)\n      Alignment : Aligned on interleaves\n      Interleave, duration : 26 ms (0.78 video frame)\n      Interleave, preload duration : 165 ms\n      Writing library : LAME3.90.\n      Encoding settings : -m j -V 4 -q 2 -lowpass 16 --abr 112\n\nScreenshot: http://img242.imageshack.us/img242/1168/vlcsnap500172pq8.png","torrent":{"xt":"urn:btih:93af75ded08f2b5dc040f2249b85dcf490b5b1d9","amp;dn":"Patinoire%2C+la+-+Jean-Philippe+Toussaint%2C+1998","amp;tr":["udp%3A%2F%2Ftracker.openbittorrent.com%3A80","udp%3A%2F%2Fopen.demonii.com%3A1337","udp%3A%2F%2Ftracker.coppersurfer.tk%3A6969","udp%3A%2F%2Fexodus.desync.com%3A6969"],"infoHash":"93af75ded08f2b5dc040f2249b85dcf490b5b1d9","infoHashBuffer":{"type":"Buffer","data":[147,175,117,222,208,143,43,93,192,64,242,36,155,133,220,244,144,181,177,217]},"announce":[],"urlList":[]}}